<svg xmlns="http://www.w3.org/2000/svg" viewBox="0 0 728 90" width="728" height="90" font-family="&#39;PingFang SC&#39;,&#39;Microsoft YaHei&#39;,sans-serif">
  <defs>
    <linearGradient id="bg" x1="0%" y1="0%" x2="100%" y2="100%">
      <stop offset="0%" stop-color="#00838F"/>
      <stop offset="100%" stop-color="#4DD0E1"/>
    </linearGradient>
    <linearGradient id="panel" x1="0%" y1="0%" x2="0%" y2="100%">
      <stop offset="0%" stop-color="rgba(255,255,255,0.10)"/>
      <stop offset="100%" stop-color="rgba(255,255,255,0.02)"/>
    </linearGradient>
    <radialGradient id="halo" cx="50%" cy="50%">
      <stop offset="0%" stop-color="rgba(255,255,255,0.20)"/>
      <stop offset="100%" stop-color="rgba(255,255,255,0)"/>
    </radialGradient>
    <filter id="shadow" x="-20%" y="-20%" width="140%" height="140%">
      <feGaussianBlur in="SourceAlpha" stdDeviation="2"/>
      <feOffset dy="2"/>
      <feComponentTransfer><feFuncA type="linear" slope="0.25"/></feComponentTransfer>
      <feMerge><feMergeNode/><feMergeNode in="SourceGraphic"/></feMerge>
    </filter>
  </defs>
  <rect width="728" height="90" fill="url(#bg)"/>
  <circle cx="100" cy="40" r="120" fill="url(#halo)"/>
  <circle cx="600" cy="-30" r="100" fill="url(#halo)" opacity="0.5"/>
  <circle cx="700" cy="100" r="80" fill="url(#halo)" opacity="0.4"/>
  <rect x="0" y="0" width="130" height="90" fill="url(#panel)"/>
  <rect x="130" y="0" width="1" height="90" fill="rgba(255,255,255,0.10)"/>
  <g transform="translate(45,45)" filter="url(#shadow)">
    <rect x="-26" y="-26" width="52" height="52" rx="14" fill="rgba(255,255,255,0.20)"/>
    <rect x="-26" y="-26" width="52" height="52" rx="14" fill="none" stroke="rgba(255,255,255,0.3)" stroke-width="1"/>
    <text x="0" y="10" font-size="24" text-anchor="middle" fill="white">🎯</text>
  </g>
  <text x="90" y="38" font-size="16" font-weight="800" fill="white" letter-spacing="1">效率</text>
  <text x="90" y="56" font-size="9" font-weight="500" fill="rgba(255,255,255,0.55)" letter-spacing="1.5">CATEGORY</text>
  <text x="148" y="40" font-size="22" font-weight="800" fill="white" letter-spacing="0.5">精选效率内容</text>
  <text x="148" y="58" font-size="11" font-weight="400" fill="rgba(255,255,255,0.75)">发现更多优质资源</text>
  <text x="148" y="74" font-size="9" font-weight="600" fill="#FFD700">限时推荐 · 热度飙升中</text>
  <g transform="translate(580,30)" filter="url(#shadow)">
    <rect x="0" y="0" width="120" height="30" rx="15" fill="rgba(255,255,255,0.95)"/>
    <text x="60" y="19" font-size="12" font-weight="700" fill="#00838F" text-anchor="middle" letter-spacing="0.5">查看详情 →</text>
  </g>
  <text x="708" y="14" font-size="8" fill="rgba(255,255,255,0.45)" text-anchor="end" letter-spacing="1">AD</text>
</svg>