<svg xmlns="http://www.w3.org/2000/svg" width="64" height="64" viewBox="0 0 64 64" shape-rendering="crispEdges"><rect x="0" y="0" width="10" height="10" fill="#bcd0ec"/><rect x="10" y="0" width="10" height="10" fill="#e8f2ff"/><rect x="20" y="0" width="10" height="10" fill="#ffffff"/><rect x="30" y="0" width="10" height="10" fill="#bcd0ec"/><rect x="40" y="0" width="10" height="10" fill="#bcd0ec"/><rect x="50" y="0" width="10" height="10" fill="#bcd0ec"/><rect x="0" y="10" width="10" height="10" fill="#bcd0ec"/><rect x="10" y="10" width="10" height="10" fill="#bcd0ec"/><rect x="20" y="10" width="10" height="10" fill="#bcd0ec"/><rect x="30" y="10" width="10" height="10" fill="#e8f2ff"/><rect x="40" y="10" width="10" height="10" fill="#ffffff"/><rect x="50" y="10" width="10" height="10" fill="#e8f2ff"/><rect x="0" y="20" width="10" height="10" fill="#bcd0ec"/><rect x="10" y="20" width="10" height="10" fill="#bcd0ec"/><rect x="20" y="20" width="10" height="10" fill="#e8f2ff"/><rect x="30" y="20" width="10" height="10" fill="#bcd0ec"/><rect x="40" y="20" width="10" height="10" fill="#bcd0ec"/><rect x="50" y="20" width="10" height="10" fill="#e8f2ff"/><rect x="0" y="30" width="10" height="10" fill="#e8f2ff"/><rect x="10" y="30" width="10" height="10" fill="#bcd0ec"/><rect x="20" y="30" width="10" height="10" fill="#bcd0ec"/><rect x="30" y="30" width="10" height="10" fill="#bcd0ec"/><rect x="40" y="30" width="10" height="10" fill="#ffffff"/><rect x="50" y="30" width="10" height="10" fill="#bcd0ec"/><rect x="0" y="40" width="10" height="10" fill="#e8f2ff"/><rect x="10" y="40" width="10" height="10" fill="#ffffff"/><rect x="20" y="40" width="10" height="10" fill="#bcd0ec"/><rect x="30" y="40" width="10" height="10" fill="#bcd0ec"/><rect x="40" y="40" width="10" height="10" fill="#bcd0ec"/><rect x="50" y="40" width="10" height="10" fill="#ffffff"/><rect x="0" y="50" width="10" height="10" fill="#bcd0ec"/><rect x="10" y="50" width="10" height="10" fill="#bcd0ec"/><rect x="20" y="50" width="10" height="10" fill="#bcd0ec"/><rect x="30" y="50" width="10" height="10" fill="#bcd0ec"/><rect x="40" y="50" width="10" height="10" fill="#e8f2ff"/><rect x="50" y="50" width="10" height="10" fill="#e8f2ff"/></svg>